<?xml version="1.0" standalone="no"?>
<!DOCTYPE svg PUBLIC "-//W3C//DTD SVG 20010904//EN"
 "http://www.w3.org/TR/2001/REC-SVG-20010904/DTD/svg10.dtd">
<svg version="1.0" xmlns="http://www.w3.org/2000/svg"
 width="800.000000pt" height="800.000000pt" viewBox="0 0 800.000000 800.000000"
 preserveAspectRatio="xMidYMid meet">
<metadata>
Created by potrace 1.14, written by Peter Selinger 2001-2017
</metadata>
<g transform="translate(0.000000,800.000000) scale(0.100000,-0.100000)"
fill="#000000" stroke="none">
<path d="M0 4000 l0 -4000 4000 0 4000 0 0 4000 0 4000 -4000 0 -4000 0 0
-4000z m3321 3307 c19 -12 42 -38 51 -57 17 -33 18 -117 18 -1337 l0 -1303
-1302 0 c-1221 0 -1305 1 -1338 18 -103 51 -108 201 -8 262 32 20 53 20 1083
20 l1050 0 -1047 1048 c-729 729 -1049 1056 -1054 1075 -25 105 43 197 146
197 23 0 51 -5 63 -11 12 -6 491 -480 1065 -1053 l1042 -1041 0 1050 c0 1030
0 1051 20 1083 44 71 143 95 211 49z m1520 0 c74 -49 69 29 69 -1137 l0 -1045
1043 1041 c573 573 1052 1047 1064 1053 61 31 155 1 193 -61 22 -37 27 -106 9
-141 -6 -12 -480 -491 -1053 -1064 l-1041 -1043 1045 0 c1166 0 1088 5 1137
-69 48 -71 20 -175 -57 -213 -33 -17 -117 -18 -1337 -18 l-1303 0 0 1308 c0
1287 0 1308 20 1340 44 71 143 95 211 49z m-1451 -5224 c0 -1288 0 -1309 -20
-1341 -61 -100 -211 -95 -262 8 -17 33 -18 105 -18 1080 l0 1045 -1047 -1047
c-730 -729 -1057 -1049 -1076 -1054 -105 -25 -197 43 -197 146 0 23 5 51 11
63 6 12 480 491 1053 1065 l1041 1042 -1045 0 c-975 0 -1047 1 -1080 18 -107
53 -107 211 0 264 33 17 117 18 1338 18 l1302 0 0 -1307z m3868 1287 c96 -59
96 -201 0 -260 -32 -20 -53 -20 -1083 -20 l-1050 0 1047 -1047 c729 -730 1049
-1057 1054 -1076 25 -105 -43 -197 -146 -197 -23 0 -51 5 -63 11 -12 6 -491
480 -1064 1053 l-1043 1041 0 -1045 c0 -975 -1 -1047 -18 -1080 -51 -103 -201
-108 -262 -8 -20 32 -20 53 -20 1341 l0 1307 1308 0 c1287 0 1308 0 1340 -20z"/>
</g>
</svg>
